<svg width="28" height="28" viewBox="0 0 28 28" fill="none" xmlns="http://www.w3.org/2000/svg">
<path d="M14 10.5001C15.925 10.5001 17.5 12.0751 17.5 14.0001C17.5 15.9251 15.925 17.5001 14 17.5001C12.075 17.5001 10.5 15.9251 10.5 14.0001C10.5 12.0751 12.075 10.5001 14 10.5001ZM14 8.16675C10.78 8.16675 8.16669 10.7801 8.16669 14.0001C8.16669 17.2201 10.78 19.8334 14 19.8334C17.22 19.8334 19.8334 17.2201 19.8334 14.0001C19.8334 10.7801 17.22 8.16675 14 8.16675ZM2.33335 15.1667H4.66669C5.30835 15.1667 5.83335 14.6417 5.83335 14.0001C5.83335 13.3584 5.30835 12.8334 4.66669 12.8334H2.33335C1.69169 12.8334 1.16669 13.3584 1.16669 14.0001C1.16669 14.6417 1.69169 15.1667 2.33335 15.1667ZM23.3334 15.1667H25.6667C26.3084 15.1667 26.8334 14.6417 26.8334 14.0001C26.8334 13.3584 26.3084 12.8334 25.6667 12.8334H23.3334C22.6917 12.8334 22.1667 13.3584 22.1667 14.0001C22.1667 14.6417 22.6917 15.1667 23.3334 15.1667ZM12.8334 2.33341V4.66675C12.8334 5.30841 13.3584 5.83341 14 5.83341C14.6417 5.83341 15.1667 5.30841 15.1667 4.66675V2.33341C15.1667 1.69175 14.6417 1.16675 14 1.16675C13.3584 1.16675 12.8334 1.69175 12.8334 2.33341ZM12.8334 23.3334V25.6667C12.8334 26.3084 13.3584 26.8334 14 26.8334C14.6417 26.8334 15.1667 26.3084 15.1667 25.6667V23.3334C15.1667 22.6917 14.6417 22.1667 14 22.1667C13.3584 22.1667 12.8334 22.6917 12.8334 23.3334ZM6.98835 5.34341C6.53335 4.88841 5.78669 4.88841 5.34335 5.34341C4.88835 5.79841 4.88835 6.54508 5.34335 6.98841L6.58002 8.22508C7.03502 8.68008 7.78169 8.68008 8.22502 8.22508C8.66835 7.77008 8.68002 7.02341 8.22502 6.58008L6.98835 5.34341ZM21.42 19.7751C20.965 19.3201 20.2184 19.3201 19.775 19.7751C19.32 20.2301 19.32 20.9767 19.775 21.4201L21.0117 22.6567C21.4667 23.1117 22.2134 23.1117 22.6567 22.6567C23.1117 22.2017 23.1117 21.4551 22.6567 21.0117L21.42 19.7751ZM22.6567 6.98841C23.1117 6.53341 23.1117 5.78675 22.6567 5.34341C22.2017 4.88841 21.455 4.88841 21.0117 5.34341L19.775 6.58008C19.32 7.03508 19.32 7.78175 19.775 8.22508C20.23 8.66841 20.9767 8.68008 21.42 8.22508L22.6567 6.98841ZM8.22502 21.4201C8.68002 20.9651 8.68002 20.2184 8.22502 19.7751C7.77002 19.3201 7.02335 19.3201 6.58002 19.7751L5.34335 21.0117C4.88835 21.4667 4.88835 22.2134 5.34335 22.6567C5.79835 23.1001 6.54502 23.1117 6.98835 22.6567L8.22502 21.4201Z" fill="white"/>
</svg>
